<svg version="1.1" id="Layer_1" xmlns="http://www.w3.org/2000/svg" x="0" y="0" viewBox="0 0 500 500"
	style="width:151px" xml:space="preserve" data-imageid="book-lover-44"
	class="illustrations_image"><style>.st0_book-lover-44{fill:#fff}.st1_book-lover-44{fill:#d1d3d4}.st2_book-lover-44{fill:#231f20}.st3_book-lover-44{fill:none}.st4_book-lover-44{fill:#68e1fd}</style><g id="stool_book-lover-44"><path class="st0_book-lover-44" d="M37.8 336.8h424.1v89.4H37.8z"/><path class="st1_book-lover-44" d="M461.9 426.9H37.8c-.4 0-.7-.3-.8-.8v-89.4c0-.4.3-.7.8-.8h424.1c.4 0 .7.3.8.8v89.4c-.1.5-.4.8-.8.8zm-423.4-1.5h422.6v-87.9H38.5v87.9z"/><path class="st0_book-lover-44" d="M35.2 336.8h429.2c2.2 0 4 1.8 4 4v6.5c0 2.2-1.8 4-4 4H35.2c-2.2 0-4-1.8-4-4v-6.5c.1-2.2 1.9-4 4-4z"/><path class="st1_book-lover-44" d="M464.4 352H35.2c-2.6 0-4.7-2.1-4.7-4.7v-6.5c0-2.6 2.1-4.7 4.7-4.7h429.2c2.6 0 4.7 2.1 4.7 4.7v6.5c0 2.6-2.1 4.7-4.7 4.7zM35.2 337.6c-1.8 0-3.2 1.4-3.2 3.2v6.5c0 1.8 1.4 3.2 3.2 3.2h429.2c1.8 0 3.2-1.4 3.2-3.2v-6.5c0-1.8-1.4-3.2-3.2-3.2H35.2z"/></g><g id="Books_book-lover-44"><path class="st2_book-lover-44" d="M67.4 313.8h132.8V336H67.4z"/><path class="st2_book-lover-44" d="M200.2 336.8H67.4c-.4 0-.8-.3-.8-.8v-22.2c0-.4.3-.8.8-.8h132.8c.4 0 .8.3.8.8V336c-.1.4-.4.8-.8.8zm-132-1.5h131.3v-20.7H68.1l.1 20.7z"/><path class="st0_book-lover-44" d="M127.8 313.8h72.4V336h-72.4z"/><path class="st2_book-lover-44" d="M200.2 336.8h-72.4c-.4 0-.8-.3-.8-.7v-22.3c0-.4.3-.7.8-.8h72.4c.4 0 .8.3.8.8V336c-.1.4-.4.8-.8.8zm-71.7-1.5h70.9v-20.7h-70.9v20.7z"/><path class="st2_book-lover-44" d="M90.7 297.8h107.6v16.5H90.7z"/><path class="st2_book-lover-44" d="M198.3 315H90.7c-.4 0-.8-.3-.8-.8v-16.5c0-.4.3-.8.8-.8h107.5c.4 0 .8.3.8.8v16.5c0 .4-.3.8-.7.8zm-106.8-1.5h106.1v-15h-106l-.1 15z"/><path class="st0_book-lover-44" d="M152.4 297.8h45.9v16.5h-45.9z"/><path class="st2_book-lover-44" d="M198.3 315h-45.9c-.4 0-.7-.3-.8-.7v-16.5c0-.4.3-.7.7-.8h45.9c.4 0 .8.3.8.8v16.5c0 .3-.3.7-.7.7zm-45.2-1.5h44.4v-15h-44.4v15z"/><path class="st2_book-lover-44" d="M75.5 281.8H183v16.5H75.5z"/><path class="st2_book-lover-44" d="M183.1 299H75.5c-.4 0-.8-.3-.8-.8v-16.5c0-.4.3-.7.7-.8h107.5c.4 0 .8.3.8.8v16.5c.1.4-.2.8-.6.8zm-106.8-1.5h106.1v-15h-106l-.1 15z"/><path class="st0_book-lover-44" d="M137.2 281.8h45.9v16.5h-45.9z"/><path class="st2_book-lover-44" d="M183.1 299h-45.9c-.4 0-.7-.3-.8-.8v-16.5c0-.4.3-.8.8-.8h45.9c.4 0 .8.3.8.8v16.5c-.1.4-.4.8-.8.8zm-45.2-1.5h44.4v-15h-44.4v15z"/><circle transform="matrix(.07089 -.9975 .9975 .07089 -169.574 398.247)" class="st0_book-lover-44" cx="129" cy="290.1" r="3.5"/><path class="st2_book-lover-44" d="M129 294.4c-2.3 0-4.2-1.9-4.2-4.2s1.9-4.2 4.2-4.2c2.3 0 4.2 1.9 4.2 4.2 0 2.3-1.9 4.2-4.2 4.2zm0-7c-1.5 0-2.7 1.2-2.7 2.7 0 1.5 1.2 2.7 2.7 2.7 1.5 0 2.7-1.2 2.7-2.7 0-1.4-1.2-2.7-2.7-2.7z"/><path class="st1_book-lover-44" d="M101.2 312.2c-.4 0-.7-.3-.8-.7v-11.1c0-.4.3-.8.8-.8s.8.3.8.8v11.1c0 .3-.4.7-.8.7zM115.6 334.2c-.4 0-.8-.3-.8-.8V316c0-.4.3-.8.8-.8s.8.3.8.8v17.4c0 .4-.4.8-.8.8z"/></g><g id="Character_book-lover-44"><path class="st1_book-lover-44" d="m135.9 87.6 5.8-4.5 24.4 10.2 49.6-16.8 4.5 6.8-51.9 29.8z"/><path class="st0_book-lover-44" d="m154.1 167.4-20.1-82 31.9 13.8 57.7-20.9 14.8 82.8-53.1 18.3z"/><path class="st2_book-lover-44" d="M185.3 180.1c-.1 0-.2 0-.3-.1l-31.2-12c-.2-.1-.4-.3-.5-.5l-20-82c-.1-.4.1-.8.5-.9h.5L166 98.4l57.3-20.8c.4-.1.8.1 1 .5v.1l14.8 82.8c.1.4-.2.7-.5.8l-53.1 18.3c0 .1-.1.1-.2 0zm-30.6-13.2 30.6 11.7 52.2-18L223 79.3l-56.8 20.6c-.2.1-.4.1-.6 0l-30.5-13.1 19.6 80.1z"/><path class="st3_book-lover-44" d="m165.9 99.2 14.8 75.9"/><path class="st2_book-lover-44" d="M180.7 175.8c-.4 0-.7-.3-.7-.6l-14.7-75.9c-.1-.4.2-.8.6-.9.4-.1.8.2.9.6l14.7 75.9c.1.4-.2.8-.6.9h-.2z"/><path class="st0_book-lover-44" d="M201.9 194.1s-5.9-9.2-5-11.6c.7-2.4 1.1-4.9 1.4-7.3l-6.2 1.5s-6.4-16.1-7.1-21.7-12.7-.4-13.1 3.9-.6 15.5 2.8 21.9 13.1 21.9 13.1 21.9"/><path class="st2_book-lover-44" d="M187.7 203.4c-.3 0-.5-.1-.6-.4-.1-.1-9.7-15.6-13.1-22s-3.4-17.4-2.9-22.3c.4-3.4 6.4-6.9 10.6-7 2.3 0 3.8 1.1 4.1 3.1.6 4.8 5.6 17.9 6.8 20.9l5.6-1.3c.2-.1.5 0 .7.2.2.2.3.4.2.6-.2 2.5-.7 5.1-1.4 7.5-.4 1.3 2.1 6.5 4.9 10.9.2.3.1.8-.2 1-.3.2-.8.1-1-.2-1-1.6-6-9.6-5.1-12.2.6-2 1-4 1.2-6.1l-5.2 1.2c-.4.1-.7-.1-.9-.4-.3-.7-6.5-16.3-7.1-21.9-.1-.4-.2-1.8-2.6-1.8-3.6 0-8.8 3.2-9.1 5.6-.5 4.8-.5 15.4 2.7 21.5 3.4 6.4 13 21.7 13.1 21.9.2.3.1.8-.2 1-.2.1-.3.2-.5.2zM385.3 203h-.3c-.4-.2-.6-.6-.4-1 6.2-15.6 2.4-35.1-9.2-47.3-.6-.6-1.2-1.2-1.8-1.9-3.9-4-8.4-8.5-8.1-14.4.1-1.2.3-2.4.6-3.6.2-.9.4-1.8.5-2.7.5-5.7-4.3-10.5-8.4-13.5-1-.7-2-1.4-3-2.2l-.1-.1c-4.1-2.8-8.3-5.7-10.9-10.1-3-5.2-3.5-11.1-3.9-16.8-.4-5-.7-10.1-2.9-14.6-7.5-15.7-26.3-22.4-42-14.9-2.1 1-4 2.2-5.8 3.6-3.8 2.9-6.8 6.7-8.6 11.1-2 4.9-2.5 10.4-2.7 15.7-.6 11.4-1.6 22.5-8 31.9-2 2.7-4.1 5.3-6.4 7.8-4.2 4.7-8.2 9-9.4 14.7-1.2 6.1 1 12.3 5.9 16.1.3.3.3.8.1 1.1-.2.3-.7.3-1 .1-5.3-4.2-7.8-11-6.4-17.6 1.3-6 5.4-10.6 9.7-15.4 2.3-2.4 4.4-4.9 6.3-7.6 6.1-9.1 7.2-19.9 7.7-31.1.3-5.4.7-11.1 2.8-16.2 2-4.6 5.1-8.6 9.1-11.7 14.4-11.2 35.1-8.7 46.3 5.6 1.5 1.9 2.7 3.9 3.8 6.1 2.3 4.7 2.7 10 3 15.1.4 5.5.8 11.2 3.7 16.1 2.4 4.1 6.5 6.9 10.4 9.6l.1.1c1 .7 2.1 1.4 3.1 2.2 4.4 3.3 9.6 8.5 9 14.9-.1 1-.3 1.9-.5 2.9-.3 1.1-.5 2.2-.6 3.4-.2 5.3 4 9.5 7.7 13.3l1.9 1.9c12 12.6 15.9 32.7 9.5 48.9-.3.3-.5.5-.8.5z"/><path class="st4_book-lover-44 targetColor" d="m268 156.2-31.2 68.5-30.4-34-25.4 12s56 84.5 71.4 76.8 37.5-75.9 37.5-75.9L268 156.2z" style="fill:#3b82f6"/><path class="st4_book-lover-44 targetColor" d="M308.4 137.2s-33.9 3.7-41.8 20.1-6.2 92.4-6.2 92.4l125 13.4s-3.2-62.5-9.1-90.2-23.9-46.1-67.9-35.7z" style="fill:#3b82f6"/><path class="st2_book-lover-44" d="m298.4 145.5 12.6 67.7 17.4-74.2z"/><path class="st2_book-lover-44" d="M311 214c-.4 0-.7-.3-.7-.6l-12.6-67.8c-.1-.4.2-.8.6-.9l30-6.5c.3 0 .5 0 .7.2.2.2.3.4.2.7l-17.4 74.3c-.1.4-.4.6-.8.6zm-11.7-68 11.8 63.6 16.3-69.6-28.1 6z"/><path class="st0_book-lover-44" d="m298.5 125.7-.1 19.8s2 11 14 7.7c7.2-2.1 13.1-7.3 16-14.2l-1.4-34.2c-.1-1.4-5.9-6.9-5.7-19.5-8.6-.1-16.7-3.7-22.4-10.1 0 0-5 7.5-7.2 9.9-1.7 1.8-3.3 3.8-4.5 6-2 3.8-2 8.6-1.9 12.8 0 5 .5 10 1.5 14.9 2 9.2 11.7 6.9 11.7 6.9z"/><path class="st2_book-lover-44" d="M308.1 154.5c-2 0-3.9-.5-5.5-1.5-2.5-1.7-4.3-4.4-5-7.4v-.1l.1-18.9c-2.6.4-5.3-.1-7.6-1.4-2.2-1.5-3.6-3.8-4-6.3-1-4.9-1.5-10-1.5-15-.1-4.1-.2-9.1 1.9-13.1 1.3-2.2 2.8-4.3 4.6-6.1 2.1-2.3 7.1-9.8 7.1-9.8.1-.2.4-.3.6-.3.2 0 .5.1.6.3 5.6 6.2 13.5 9.7 21.9 9.8.2 0 .4.1.5.2.1.1.2.3.2.5-.2 6.1 1.4 12.1 4.6 17.3.5.6.8 1.4 1 2.2 0 .2 1.4 34.2 1.4 34.2v.3c-3 7.1-9 12.5-16.5 14.6-1.3.3-2.8.5-4.4.5zm-9-9.1c.6 2.6 2.1 4.9 4.3 6.4 2.3 1.4 5.2 1.6 8.8.7 6.9-2 12.5-7 15.4-13.6l-1.4-34.1c-.2-.5-.5-1-.8-1.4-3.3-5.2-5-11.2-4.9-17.3-8.2-.3-15.9-3.7-21.6-9.6-2.1 3.2-4.3 6.2-6.7 9.2-1.7 1.7-3.2 3.7-4.4 5.8-2 3.7-1.9 8.3-1.8 12.4 0 4.9.5 9.9 1.5 14.7.3 2.2 1.6 4.1 3.4 5.4 3.2 2 7.3 1.1 7.4 1.1.2-.1.5 0 .6.1.2.1.3.4.3.6l-.1 19.6z"/><path class="st2_book-lover-44" d="M298.6 135.4s8 .4 13.2-5 4.4-10.7 4.4-10.7-8.7 5.8-17.7 6l.1 9.7z"/><path class="st2_book-lover-44" d="M299 136.1h-.4c-.4 0-.7-.3-.7-.7l-.1-9.7c0-.4.3-.7.7-.8 8.7-.2 17.2-5.8 17.3-5.9.3-.2.8-.1 1 .2.1.1.1.2.1.3 0 .2.8 5.8-4.6 11.4-4.7 4.9-11.6 5.2-13.3 5.2zm.3-9.7.1 8.2c2-.1 7.9-.6 11.9-4.8 2.4-2.4 3.9-5.5 4.2-8.9-2.6 1.7-9.2 5.1-16.2 5.5z"/><path class="st0_book-lover-44" d="M300.7 96.7s-6.4 9.5-4.8 11.1 5.7.6 5.7.6"/><path class="st2_book-lover-44" d="M298.8 109.5c-1.3.1-2.5-.3-3.5-1.2-.7-.8-1-3.4 4.8-12.1.2-.4.6-.5 1-.3s.5.6.3 1l-.1.1c-3.1 4.7-5.4 9.4-4.9 10.2 1 1.1 4 .6 5 .3.4-.1.8.1.9.5.1.4-.1.8-.5.9-1 .4-2 .6-3 .6z"/><path class="st0_book-lover-44" d="M294 113.1s5.7 8.4 15.7.3"/><path class="st2_book-lover-44" d="M301.3 117.7c-.5 0-.9 0-1.4-.1-2.7-.4-5-1.9-6.6-4.1-.2-.3-.1-.8.2-1 .3-.2.8-.1 1 .2 1.4 1.8 3.4 3 5.6 3.4 2.8.4 5.8-.7 9-3.3.3-.3.8-.2 1 .1.3.3.2.8-.1 1.1-2.9 2.5-5.8 3.7-8.7 3.7z"/><path class="st3_book-lover-44" d="m275.1 248.1 4.7-78.4"/><path class="st2_book-lover-44" d="M275.1 248.9c-.5 0-.8-.4-.8-.8l4.7-78.4c0-.4.4-.7.8-.7s.7.4.7.8l-4.7 78.4c0 .3-.3.6-.7.7z"/><path class="st2_book-lover-44" d="M287.3 347.6c-32.6 0-63.3-2.9-63.6-2.9l-1.1-.1-13.1-40.3v-.2c-.8-7.3-1.5-14.3 2.8-19.5 3.8-4.7 11.4-7.4 23.6-8.6l36.7-7.5 1.1-22.4 92.6 10.3.3 1c3.5 10.5 6 21.2 7.4 32.2 2.6 21.5-.8 36.6-10 44.9-9.6 8.7-35.4 13.1-76.7 13.1z"/><path class="st0_book-lover-44" d="M243.1 307.8s-6-29-27.9-22.5S242 399.8 242 406.9s-18.6 28.5-18.6 28.5c5.3-.3 10.6-.8 15.9-1.6 5.8-1.1 21.6-24.1 22.2-26.6s-11-78.6-18.4-99.4z"/><path class="st2_book-lover-44" d="M223.4 436.2c-.3 0-.5-.2-.7-.4-.1-.3-.1-.6.1-.8 6.4-7.3 18.4-22.6 18.4-28 0-1.6-3.2-10-7.2-20.7-11.6-30.9-31.1-82.6-23.7-97.6.9-1.9 2.5-3.4 4.5-4 5.7-1.7 10.9-1.2 15.4 1.5 10 5.9 13.2 20.4 13.5 21.5 7.1 20.1 19.1 96.6 18.4 99.8-.5 2.3-16.5 26-22.8 27.1-5.2.8-10.5 1.3-15.9 1.6zm-2-151.1c-2 0-4.1.3-6 .9-1.6.5-2.9 1.7-3.6 3.3-7.2 14.5 12.9 67.8 23.7 96.4 4.8 12.7 7.3 19.4 7.3 21.2 0 6.3-13.5 22.8-17.7 27.6 4.7-.3 9.4-.8 14-1.5 5.3-1 21.1-23.7 21.6-26 .3-2.1-10.8-77.9-18.3-99 0-.1-3.2-14.9-12.8-20.6-2.5-1.5-5.3-2.3-8.2-2.3z"/><path class="st2_book-lover-44" d="M232.1 448.3h-2.4c-6.1-.3-13.4-1.9-15.7-5.6-.9-1.4-1-3.1-.3-4.6 2.4-5.6 8.3-6.1 8.5-6.1s12-.7 17.1-1.8c2.9-.6 12.9-12.6 20.8-23.9l1.9-2.7 1 3.2c2.2 7.6 3.9 15.2 5.1 23 2.3 14.1 1.6 14.5.5 15-.7.3-2.1.5-7.4.9l-1.9.1h-.2c-1.9 0-2.8-1.7-3.2-3.6-1.5 1.4-3.2 2.5-5.1 3.3-3.4 1.4-11.5 2.8-18.7 2.8z"/><path class="st0_book-lover-44" d="M293.5 407.3s-9.5-93.9-13.9-111.4-29.6-23-37.3-1.8 30.3 104.5 27.4 113.2-13.9 25.9-13.9 25.9 11.7 5.8 20.1 0 17.6-25.9 17.6-25.9z"/><path class="st2_book-lover-44" d="M267 436.6c-4-.1-7.9-1-11.5-2.7-.2-.1-.3-.3-.4-.5-.1-.2 0-.4.1-.6.1-.2 10.9-17.2 13.8-25.8 1-3.1-4.3-18.7-10-35.2-9.9-28.9-22.2-64.8-17.4-78.1 3.4-9.3 10.6-14.6 19.4-14.2 9.3.6 17.1 7.1 19.3 16.1 4.4 17.4 13.8 110.6 13.9 111.5 0 .1 0 .3-.1.4-.4.8-9.3 20.4-17.8 26.2-2.7 2-6 3-9.3 2.9zm-10-3.7c2.7 1.1 11.8 4.4 18.6-.3 7.7-5.4 16.3-23.4 17.2-25.5-.5-4.9-9.6-94.2-13.8-111.1-2.1-8.4-9.3-14.4-17.9-15-8.1-.4-14.8 4.5-17.9 13.2-4.6 12.8 8.1 49.9 17.4 77.1 7.1 20.8 11.1 32.7 10 36.2-2.7 7.9-11.5 22-13.6 25.4z"/><path class="st2_book-lover-44" d="M256.9 450.5c-8.9 0-11.4-1-12.5-1.7s-2.6-1.9-2.8-3.6c-.2-2 1.1-3.5 2.8-5.2.4-.5.9-1 1.3-1.5 3.2-3.8 9.3-6.6 9.5-6.7l.6-.3.7.3c1.6.5 3.2.7 4.9.6 4-.1 7.9-.9 11.6-2.3 10.4-3.8 19-23.2 19-23.4l2.1-4.8 1.1 5.1c2.7 13 3.6 26.3 2.8 39.6l-.1 1.2-1.2.3c-2.3.6-4.7.9-7.1 1.2-.3 0-.5 0-.8-.1-.9-.2-1.9-.5-2.1-6.6-2.2 2.6-5.1 5.6-7.4 6.3-2.6.7-13.6 1.6-22.4 1.6z"/><path class="st0_book-lover-44" d="M370 297.9c1.1 1.7 4.8 37.6 4.8 37.6s40.7 3.7 41.3.8-20.8-10.1-20.8-10.1l-6.7-28.5"/><path class="st2_book-lover-44" d="M407.9 338.2c-3 0-7.2-.1-12.7-.4-10.1-.6-20.4-1.5-20.5-1.5-.4 0-.6-.3-.7-.7-1.4-13.6-3.9-35.7-4.7-37.3-.2-.3-.1-.8.2-1 .3-.2.8-.1 1 .2 1.1 1.7 3.9 28.2 4.9 37.3 18.1 1.6 37.5 2.5 39.8 1.3-.6-1.3-8.3-5.1-20.2-9.1-.2-.1-.4-.3-.5-.5l-6.7-28.5c-.1-.4.2-.8.6-.9.4-.1.8.2.9.6l6.6 28.1c8.2 2.8 21.5 7.8 20.9 10.8-.1.6-.3 1.6-8.9 1.6z"/><path class="st4_book-lover-44 targetColor" d="M375.2 170.9 403 306.2l-38.3 1s-13.3-71.7-14.1-82.5 24.6-53.8 24.6-53.8z" style="fill:#3b82f6"/><circle class="st0_book-lover-44" cx="290.3" cy="94.9" r="8.6"/><path class="st2_book-lover-44" d="M290.3 104.3h-.4c-5.2-.2-9.2-4.6-9-9.8.1-5.2 4.4-9.3 9.5-9.3 5.2.1 9.3 4.4 9.3 9.5v.5c-.2 5.1-4.4 9.1-9.4 9.1zm0-17.3c-4.4 0-7.9 3.5-7.9 7.9s3.5 7.9 7.9 7.9c4.2 0 7.7-3.4 7.9-7.6.2-4.4-3.2-8-7.6-8.2h-.3z"/><path class="st0_book-lover-44" d="M309.3 87.7c-4.4 0-7.9 3.5-7.9 7.9s3.5 7.9 7.9 7.9c4.2 0 7.7-3.4 7.9-7.6.2-4.4-3.2-8-7.6-8.2h-.3z"/><path class="st2_book-lover-44" d="M309.4 104.3h-.4c-5-.1-9-4.2-8.9-9.3.1-5 4.2-9 9.3-8.9 5 .1 9 4.2 8.9 9.3-.1 4.9-4.1 8.8-8.9 8.9zm0-15.8c-4 .1-7.2 3.4-7.1 7.4s3.4 7.2 7.4 7.1 7.2-3.4 7.1-7.4c-.1-3.9-3.2-7-7.1-7.1h-.3z"/><path class="st3_book-lover-44" d="m247.8 237.8-37-42.6"/><path class="st2_book-lover-44" d="M247.8 238.5c-.2 0-.4-.1-.6-.3l-36.9-42.6c-.3-.3-.2-.8.1-1.1.3-.3.8-.2 1.1.1l37 42.6c.3.3.2.8-.1 1-.2.3-.4.3-.6.3z"/><path class="st1_book-lover-44" d="m179.9 112.3 35-13.4 3.2 16.1-35.3 11.3z"/><ellipse transform="rotate(-87.75 289.941 93.93) scale(.99997)" class="st2_book-lover-44" cx="289.9" cy="93.9" rx="2" ry="1.1"/><ellipse transform="rotate(-87.75 309.457 95.081) scale(.99997)" class="st2_book-lover-44" cx="309.5" cy="95.1" rx="2" ry="1.1"/><path class="st2_book-lover-44" d="M317.9 96.1c1.8-.1 17.5-1.1 18 5.7"/><path class="st2_book-lover-44" d="M336 102.6c-.4 0-.7-.3-.8-.7-.5-6.2-16.6-5.1-17.2-5.1-.4.1-.8-.2-.9-.6-.1-.4.2-.8.6-.9h.1c3-.2 18.2-1 18.9 6.4.1.5-.2.8-.7.9z"/><path class="st0_book-lover-44" d="M320 103c.3-1.5 1.1-2.8 2.2-3.8 1.1-.9 2.3-1.5 3.6-2 .7-.3 1.4-.5 2.2-.5.5.1 1.1.2 1.5.5 1.2.5 2.1 1.4 2.6 2.6.3 1 .4 2 .2 3-.1 1.1-.3 2.2-.7 3.2-1.6 4.3-6.5 6.5-10.8 4.8 0 0-.1 0-.1-.1"/><path class="st2_book-lover-44" d="M323.9 112.2c-1.2 0-2.3-.2-3.4-.7-.4-.1-.6-.6-.5-1 .1-.4.6-.6 1-.5h.1c3.9 1.6 8.3-.3 9.9-4.2v-.1c.4-1 .6-2 .7-3 .1-.9.1-1.8-.2-2.7-.5-1-1.3-1.8-2.3-2.2-.4-.2-.8-.4-1.2-.4-.7 0-1.3.2-1.9.4-1.2.4-2.4 1.1-3.4 1.9-1 .9-1.7 2.1-2 3.4-.1.4-.5.7-.9.6-.4-.1-.7-.5-.6-.9.3-1.6 1.2-3.1 2.5-4.2 1.2-.9 2.5-1.6 3.9-2.1.8-.4 1.7-.6 2.5-.5.6.1 1.2.3 1.8.6 1.3.6 2.4 1.7 3 3 .4 1.1.5 2.2.3 3.4-.1 1.2-.3 2.3-.8 3.4-.9 2.3-2.6 4.1-4.9 5.1-1.1.5-2.3.8-3.6.7z"/><path class="st3_book-lover-44" d="m364.1 304-22.6-137.7"/><path class="st2_book-lover-44" d="M364.1 304.7c-.4 0-.7-.3-.7-.6l-22.6-137.7c-.1-.4.2-.8.6-.9.4-.1.8.2.9.6l22.5 137.7c.1.4-.2.8-.6.9h-.1z"/><path class="st0_book-lover-44" d="M296.4 270.9c-.1 0-.2 0-.3-.1-8.9-4-21.3-1.1-21.9-.9-.4.1-.8-.2-.9-.6s.2-.8.6-.9c.5-.1 13.4-3.2 22.8 1 .4.2.5.6.4 1-.2.3-.4.5-.7.5z"/><path class="st3_book-lover-44" d="m325.3 233.2 18.7 10.9"/><path class="st2_book-lover-44" d="M344 244.8c-.1 0-.3 0-.4-.1l-18.7-10.9c-.4-.2-.5-.7-.3-1 .2-.4.7-.5 1-.3l18.7 10.9c.4.2.5.7.3 1-.1.3-.3.4-.6.4z"/><path class="st3_book-lover-44" d="m294.5 228.5-11.3 9.1"/><path class="st2_book-lover-44" d="M283.2 238.3c-.4 0-.8-.3-.8-.7 0-.2.1-.5.3-.6l11.2-9c.3-.3.8-.2 1.1.1.3.3.2.8-.1 1.1l-11.2 9c-.1 0-.3.1-.5.1z"/></g><g id="Plant_book-lover-44"><path class="st0_book-lover-44" d="M146.4 391.3c3.6-3.2 7.6-5.8 11.9-7.8.4 12.7-4.8 24.5-9.6 32.5h-15.5"/><path class="st2_book-lover-44" d="M148.7 416.7h-15.5c-.4 0-.8-.3-.8-.8s.3-.8.8-.8h15.1c4.3-7.4 9.3-18.5 9.3-30.6-3.9 1.9-7.5 4.3-10.7 7.2-.3.3-.8.2-1.1-.1s-.2-.8.1-1.1c3.6-3.2 7.7-5.9 12.1-7.9.4-.1.8 0 1 .4v.2c.4 13.1-5.1 25.1-9.7 32.9-.1.5-.3.6-.6.6z"/><path class="st0_book-lover-44" d="M124.2 394.7c3.8-19.9 19.4-32.4 19.4-32.4 2.9 9.4 3.9 19.2 2.8 29-.8 8.4-2.6 16.7-5.4 24.7h-16.7"/><path class="st2_book-lover-44" d="M141 416.7h-16.7c-.4 0-.8-.3-.8-.8s.3-.8.8-.8h16.2c2.6-7.8 4.4-15.8 5.2-24 1-9.3.1-18.7-2.5-27.6-3.3 2.9-15.1 14.5-18.3 31.3 0 .4-.4.7-.8.7s-.7-.4-.7-.8v-.1c3.8-20 19.5-32.8 19.7-32.9.2-.2.4-.2.7-.1.2.1.4.3.5.5 2.9 9.5 3.9 19.4 2.9 29.3-.8 8.5-2.6 16.8-5.4 24.9-.2.2-.5.4-.8.4z"/><path class="st0_book-lover-44" d="M115.9 416h14.8c.1-4.4-.9-11-5.6-19.6l-1-1.7c-8.6-14.5-16.4-14.3-16.4-14.3-3.3 15.2 3.7 28.8 8.2 35.6z"/><path class="st2_book-lover-44" d="M130.7 416.7h-14.8c-.2 0-.5-.1-.6-.3-4.5-6.9-11.7-20.6-8.3-36.2.1-.3.4-.6.7-.6.3 0 8.4 0 17.1 14.7.3.5.6 1.1.9 1.7 5 9 5.8 15.8 5.7 20 0 .4-.3.7-.7.7zm-14.4-1.5H130c0-4-1-10.3-5.5-18.5l-.9-1.6c-6.9-11.6-13.2-13.6-15.2-13.9-2.9 14.5 3.6 27.4 7.9 34z"/><path class="st2_book-lover-44" d="M118.6 439.5h29l4.7-23.5h-38.4z"/><path class="st2_book-lover-44" d="M147.6 440.2h-29c-.4 0-.7-.3-.7-.6l-4.7-23.5c0-.2 0-.4.2-.6.1-.2.4-.3.6-.3h38.4c.2 0 .4.1.6.3.1.2.2.4.1.6l-4.7 23.5c-.1.3-.4.6-.8.6zm-28.4-1.5H147l4.4-22h-36.5l4.3 22z"/></g></svg>